<svg xmlns="http://www.w3.org/2000/svg" xmlns:xlink="http://www.w3.org/1999/xlink" width="500" zoomAndPan="magnify" viewBox="0 0 375 225" height="300" preserveAspectRatio="xMidYMid meet" version="1.0"><defs><g/><clipPath id="e32cb485b3"><path d="M 204.800781 69.882812 L 327.050781 69.882812 L 327.050781 192.132812 L 204.800781 192.132812 Z M 204.800781 69.882812 " clip-rule="nonzero"/></clipPath></defs><g fill="#2c3639" fill-opacity="1"><g transform="translate(0.000000000000063949, 184.473058)"><g><path d="M 0.394531 -69.515625 C 4.191406 -68.488281 3.796875 -64.375 3.796875 -63.425781 L 3.796875 -9.332031 C 3.796875 -4.824219 3.164062 -2.136719 1.027344 0 L 27.523438 0 C 25.386719 -2.136719 24.753906 -4.824219 24.753906 -9.332031 L 24.753906 -30.84375 C 24.753906 -39.621094 28.074219 -42.074219 31.714844 -42.074219 C 35.191406 -42.074219 36.222656 -38.671875 36.222656 -35.035156 L 36.222656 -9.332031 C 36.222656 -4.824219 35.589844 -2.136719 33.453125 0 L 59.945312 0 C 57.8125 -2.136719 57.179688 -4.824219 57.179688 -9.332031 L 57.179688 -22.855469 L 57.101562 -37.960938 C 57.101562 -46.1875 55.121094 -56.546875 43.574219 -56.546875 C 30.210938 -56.546875 28.550781 -45.554688 25.308594 -45.554688 C 25.226562 -45.554688 24.992188 -45.554688 24.753906 -45.554688 L 24.753906 -77.1875 C 24.753906 -78.769531 24.675781 -80.273438 22.382812 -80.273438 C 17.714844 -80.273438 3.164062 -73.152344 0.078125 -71.652344 C -0.078125 -71.574219 -0.789062 -71.414062 -0.789062 -70.625 C -0.789062 -69.675781 0.15625 -69.59375 0.394531 -69.515625 Z M 0.394531 -69.515625 "/></g></g></g><g fill="#2c3639" fill-opacity="1"><g transform="translate(61.518113, 184.473058)"><g><path d="M 0.394531 -69.515625 C 4.191406 -68.488281 3.796875 -64.375 3.796875 -63.425781 L 3.796875 -6.484375 C 3.796875 -2.453125 4.746094 0 8.144531 0 L 27.523438 0 C 25.386719 -2.136719 24.753906 -4.824219 24.753906 -9.332031 L 24.753906 -77.1875 C 24.753906 -78.769531 24.675781 -80.273438 22.382812 -80.273438 C 17.714844 -80.273438 3.164062 -73.152344 0.078125 -71.652344 C -0.078125 -71.574219 -0.789062 -71.414062 -0.789062 -70.625 C -0.789062 -69.675781 0.15625 -69.59375 0.394531 -69.515625 Z M 0.394531 -69.515625 "/></g></g></g><g fill="#2c3639" fill-opacity="1"><g transform="translate(89.82593, 184.473058)"><g><path d="M 27.285156 0 C 25.148438 -2.136719 24.515625 -4.824219 24.515625 -9.332031 L 24.515625 -30.84375 C 24.515625 -39.621094 27.839844 -42.074219 31.476562 -42.074219 C 34.957031 -42.074219 35.984375 -38.671875 35.984375 -35.035156 L 35.984375 -9.332031 C 35.984375 -4.824219 35.351562 -2.136719 33.214844 0 L 59.710938 0 C 57.574219 -2.136719 56.941406 -4.824219 56.941406 -9.332031 L 56.941406 -22.855469 L 56.863281 -37.960938 C 56.863281 -46.1875 54.886719 -56.546875 43.339844 -56.546875 C 29.972656 -56.546875 28.3125 -45.554688 25.070312 -45.554688 C 24.753906 -45.554688 24.515625 -45.554688 24.515625 -47.453125 L 24.515625 -48.796875 C 24.515625 -52.828125 23.566406 -55.359375 20.167969 -55.359375 L 0.789062 -55.359375 C 2.925781 -53.222656 3.558594 -50.535156 3.558594 -46.027344 L 3.558594 -9.332031 C 3.558594 -4.824219 2.925781 -2.136719 0.789062 0 Z M 27.285156 0 "/></g></g></g><g fill="#2c3639" fill-opacity="1"><g transform="translate(0, 99.237067)"><g><path d="M 0.394531 -69.515625 C 4.191406 -68.488281 3.796875 -64.375 3.796875 -63.425781 L 3.796875 -9.332031 C 3.796875 -4.824219 3.164062 -2.136719 1.027344 0 L 27.523438 0 C 25.386719 -2.136719 24.753906 -4.824219 24.753906 -9.332031 L 24.753906 -30.84375 C 24.753906 -39.621094 28.074219 -42.074219 31.714844 -42.074219 C 35.191406 -42.074219 36.222656 -38.671875 36.222656 -35.035156 L 36.222656 -9.332031 C 36.222656 -4.824219 35.589844 -2.136719 33.453125 0 L 59.945312 0 C 57.8125 -2.136719 57.179688 -4.824219 57.179688 -9.332031 L 57.179688 -22.855469 L 57.101562 -37.960938 C 57.101562 -46.1875 55.121094 -56.546875 43.574219 -56.546875 C 30.210938 -56.546875 28.550781 -45.554688 25.308594 -45.554688 C 25.226562 -45.554688 24.992188 -45.554688 24.753906 -45.554688 L 24.753906 -77.1875 C 24.753906 -78.769531 24.675781 -80.273438 22.382812 -80.273438 C 17.714844 -80.273438 3.164062 -73.152344 0.078125 -71.652344 C -0.078125 -71.574219 -0.789062 -71.414062 -0.789062 -70.625 C -0.789062 -69.675781 0.15625 -69.59375 0.394531 -69.515625 Z M 0.394531 -69.515625 "/></g></g></g><g fill="#2c3639" fill-opacity="1"><g transform="translate(61.518113, 99.237067)"><g><path d="M 1.976562 -12.335938 C 1.976562 -4.746094 8.382812 1.1875 16.054688 1.1875 C 27.363281 1.1875 29.65625 -6.167969 32.980469 -6.167969 C 34.164062 -6.167969 34.796875 -4.746094 35.035156 -3.402344 C 35.429688 -1.265625 36.773438 0 39.148438 0 L 58.523438 0 C 56.386719 -2.136719 55.753906 -4.824219 55.753906 -9.332031 L 55.753906 -32.820312 C 55.753906 -44.128906 47.214844 -56.546875 29.023438 -56.546875 C 20.640625 -56.546875 12.335938 -55.359375 6.960938 -50.21875 C 4.902344 -48.320312 5.378906 -45.472656 5.378906 -42.785156 L 5.378906 -38.433594 C 5.378906 -37.089844 6.5625 -35.90625 7.828125 -35.90625 C 12.734375 -35.90625 17.875 -52.039062 27.839844 -52.195312 C 33.691406 -52.277344 34.71875 -47.6875 34.71875 -44.207031 C 34.71875 -42.785156 34.164062 -41.203125 31.871094 -40.730469 C 17.003906 -37.644531 1.976562 -29.183594 1.976562 -12.335938 Z M 31.871094 -35.589844 C 34.007812 -35.589844 34.71875 -34.242188 34.71875 -30.683594 C 34.71875 -25.78125 34.796875 -22.855469 34.796875 -17.875 C 34.796875 -12.734375 32.664062 -8.859375 28.390625 -8.859375 C 22.539062 -8.859375 20.878906 -14.234375 20.878906 -19.769531 C 20.878906 -29.5 26.730469 -35.589844 31.871094 -35.589844 Z M 31.871094 -35.589844 "/></g></g></g><g fill="#2c3639" fill-opacity="1"><g transform="translate(120.426848, 99.237067)"><g><path d="M 0.394531 -69.515625 C 4.191406 -68.488281 3.796875 -64.375 3.796875 -63.425781 L 3.796875 -6.484375 C 3.796875 -2.453125 4.746094 0 8.144531 0 L 27.523438 0 C 25.386719 -2.136719 24.753906 -4.824219 24.753906 -9.332031 L 24.753906 -77.1875 C 24.753906 -78.769531 24.675781 -80.273438 22.382812 -80.273438 C 17.714844 -80.273438 3.164062 -73.152344 0.078125 -71.652344 C -0.078125 -71.574219 -0.789062 -71.414062 -0.789062 -70.625 C -0.789062 -69.675781 0.15625 -69.59375 0.394531 -69.515625 Z M 0.394531 -69.515625 "/></g></g></g><g fill="#2c3639" fill-opacity="1"><g transform="translate(148.734666, 99.237067)"><g><path d="M 1.976562 -12.335938 C 1.976562 -4.746094 8.382812 1.1875 16.054688 1.1875 C 27.363281 1.1875 29.65625 -6.167969 32.980469 -6.167969 C 34.164062 -6.167969 34.796875 -4.746094 35.035156 -3.402344 C 35.429688 -1.265625 36.773438 0 39.148438 0 L 58.523438 0 C 56.386719 -2.136719 55.753906 -4.824219 55.753906 -9.332031 L 55.753906 -32.820312 C 55.753906 -44.128906 47.214844 -56.546875 29.023438 -56.546875 C 20.640625 -56.546875 12.335938 -55.359375 6.960938 -50.21875 C 4.902344 -48.320312 5.378906 -45.472656 5.378906 -42.785156 L 5.378906 -38.433594 C 5.378906 -37.089844 6.5625 -35.90625 7.828125 -35.90625 C 12.734375 -35.90625 17.875 -52.039062 27.839844 -52.195312 C 33.691406 -52.277344 34.71875 -47.6875 34.71875 -44.207031 C 34.71875 -42.785156 34.164062 -41.203125 31.871094 -40.730469 C 17.003906 -37.644531 1.976562 -29.183594 1.976562 -12.335938 Z M 31.871094 -35.589844 C 34.007812 -35.589844 34.71875 -34.242188 34.71875 -30.683594 C 34.71875 -25.78125 34.796875 -22.855469 34.796875 -17.875 C 34.796875 -12.734375 32.664062 -8.859375 28.390625 -8.859375 C 22.539062 -8.859375 20.878906 -14.234375 20.878906 -19.769531 C 20.878906 -29.5 26.730469 -35.589844 31.871094 -35.589844 Z M 31.871094 -35.589844 "/></g></g></g><g fill="#2c3639" fill-opacity="1"><g transform="translate(207.643401, 99.237067)"><g><path d="M 27.285156 0 C 25.148438 -2.136719 24.515625 -4.824219 24.515625 -9.332031 L 24.515625 -30.84375 C 24.515625 -39.621094 27.839844 -42.074219 31.476562 -42.074219 C 34.957031 -42.074219 35.984375 -38.671875 35.984375 -35.035156 L 35.984375 -9.332031 C 35.984375 -4.824219 35.351562 -2.136719 33.214844 0 L 59.710938 0 C 57.574219 -2.136719 56.941406 -4.824219 56.941406 -9.332031 L 56.941406 -22.855469 L 56.863281 -37.960938 C 56.863281 -46.1875 54.886719 -56.546875 43.339844 -56.546875 C 29.972656 -56.546875 28.3125 -45.554688 25.070312 -45.554688 C 24.753906 -45.554688 24.515625 -45.554688 24.515625 -47.453125 L 24.515625 -48.796875 C 24.515625 -52.828125 23.566406 -55.359375 20.167969 -55.359375 L 0.789062 -55.359375 C 2.925781 -53.222656 3.558594 -50.535156 3.558594 -46.027344 L 3.558594 -9.332031 C 3.558594 -4.824219 2.925781 -2.136719 0.789062 0 Z M 27.285156 0 "/></g></g></g><g clip-path="url(#e32cb485b3)"><path fill="#2c3639" d="M 278.507812 138.035156 C 286.953125 132.511719 301.507812 131.789062 327.050781 131.007812 C 301.507812 130.222656 286.953125 129.503906 278.507812 123.976562 C 281.027344 118.300781 286.449219 111.71875 294.785156 102.144531 C 285.214844 110.484375 278.632812 115.90625 272.953125 118.421875 C 267.429688 109.976562 266.707031 95.421875 265.925781 69.882812 C 265.140625 95.421875 264.421875 109.976562 258.894531 118.421875 C 253.21875 115.90625 246.636719 110.484375 237.0625 102.144531 C 245.398438 111.71875 250.824219 118.300781 253.339844 123.976562 C 244.894531 129.503906 230.339844 130.222656 204.800781 131.007812 C 230.339844 131.789062 244.894531 132.511719 253.339844 138.035156 C 250.824219 143.714844 245.398438 150.296875 237.0625 159.867188 C 246.636719 151.53125 253.21875 146.109375 258.894531 143.59375 C 264.421875 152.039062 265.140625 166.589844 265.925781 192.132812 C 266.707031 166.589844 267.429688 152.039062 272.953125 143.59375 C 278.632812 146.109375 285.214844 151.53125 294.785156 159.867188 C 286.449219 150.296875 281.027344 143.714844 278.507812 138.035156 Z M 278.507812 138.035156 " fill-opacity="1" fill-rule="nonzero"/></g><g fill="#2c3639" fill-opacity="1"><g transform="translate(169.223211, 158.258999)"><g><path d="M 10.140625 -1.4375 L 10.140625 0 L 1.734375 0 L 1.734375 -11.578125 L 9.90625 -11.578125 L 9.90625 -10.140625 L 3.390625 -10.140625 L 3.390625 -6.578125 L 9.203125 -6.578125 L 9.203125 -5.171875 L 3.390625 -5.171875 L 3.390625 -1.4375 Z M 10.140625 -1.4375 "/></g></g></g><g fill="#2c3639" fill-opacity="1"><g transform="translate(182.640281, 158.258999)"><g><path d="M 5.109375 0.125 C 4.242188 0.125 3.40625 -0.00390625 2.59375 -0.265625 C 1.78125 -0.535156 1.140625 -0.890625 0.671875 -1.328125 L 1.296875 -2.609375 C 1.734375 -2.210938 2.296875 -1.890625 2.984375 -1.640625 C 3.671875 -1.398438 4.378906 -1.28125 5.109375 -1.28125 C 6.066406 -1.28125 6.78125 -1.441406 7.25 -1.765625 C 7.726562 -2.085938 7.96875 -2.519531 7.96875 -3.0625 C 7.96875 -3.457031 7.835938 -3.78125 7.578125 -4.03125 C 7.328125 -4.28125 7.007812 -4.46875 6.625 -4.59375 C 6.25 -4.726562 5.710938 -4.878906 5.015625 -5.046875 C 4.140625 -5.253906 3.429688 -5.460938 2.890625 -5.671875 C 2.359375 -5.878906 1.898438 -6.203125 1.515625 -6.640625 C 1.140625 -7.078125 0.953125 -7.664062 0.953125 -8.40625 C 0.953125 -9.019531 1.113281 -9.578125 1.4375 -10.078125 C 1.769531 -10.578125 2.265625 -10.972656 2.921875 -11.265625 C 3.585938 -11.566406 4.410156 -11.71875 5.390625 -11.71875 C 6.078125 -11.71875 6.75 -11.628906 7.40625 -11.453125 C 8.070312 -11.273438 8.644531 -11.019531 9.125 -10.6875 L 8.578125 -9.359375 C 8.085938 -9.671875 7.566406 -9.90625 7.015625 -10.0625 C 6.460938 -10.226562 5.921875 -10.3125 5.390625 -10.3125 C 4.453125 -10.3125 3.75 -10.140625 3.28125 -9.796875 C 2.8125 -9.453125 2.578125 -9.007812 2.578125 -8.46875 C 2.578125 -8.070312 2.707031 -7.75 2.96875 -7.5 C 3.238281 -7.25 3.566406 -7.054688 3.953125 -6.921875 C 4.347656 -6.785156 4.882812 -6.640625 5.5625 -6.484375 C 6.425781 -6.273438 7.125 -6.066406 7.65625 -5.859375 C 8.1875 -5.648438 8.640625 -5.328125 9.015625 -4.890625 C 9.398438 -4.460938 9.59375 -3.882812 9.59375 -3.15625 C 9.59375 -2.550781 9.425781 -2 9.09375 -1.5 C 8.769531 -1 8.269531 -0.601562 7.59375 -0.3125 C 6.914062 -0.0195312 6.085938 0.125 5.109375 0.125 Z M 5.109375 0.125 "/></g></g></g><g fill="#2c3639" fill-opacity="1"><g transform="translate(195.246773, 158.258999)"><g><path d="M 4.03125 -10.140625 L 0.0625 -10.140625 L 0.0625 -11.578125 L 9.640625 -11.578125 L 9.640625 -10.140625 L 5.671875 -10.140625 L 5.671875 0 L 4.03125 0 Z M 4.03125 -10.140625 "/></g></g></g><g fill="#2c3639" fill-opacity="1"><g transform="translate(207.290823, 158.258999)"><g><path d="M 1.734375 -11.578125 L 6.625 -11.578125 C 7.84375 -11.578125 8.925781 -11.332031 9.875 -10.84375 C 10.820312 -10.363281 11.554688 -9.6875 12.078125 -8.8125 C 12.609375 -7.9375 12.875 -6.929688 12.875 -5.796875 C 12.875 -4.660156 12.609375 -3.648438 12.078125 -2.765625 C 11.554688 -1.890625 10.820312 -1.207031 9.875 -0.71875 C 8.925781 -0.238281 7.84375 0 6.625 0 L 1.734375 0 Z M 6.515625 -1.4375 C 7.453125 -1.4375 8.273438 -1.617188 8.984375 -1.984375 C 9.703125 -2.347656 10.253906 -2.859375 10.640625 -3.515625 C 11.023438 -4.171875 11.21875 -4.929688 11.21875 -5.796875 C 11.21875 -6.648438 11.023438 -7.40625 10.640625 -8.0625 C 10.253906 -8.71875 9.703125 -9.226562 8.984375 -9.59375 C 8.273438 -9.957031 7.453125 -10.140625 6.515625 -10.140625 L 3.390625 -10.140625 L 3.390625 -1.4375 Z M 6.515625 -1.4375 "/></g></g></g><g fill="#2c3639" fill-opacity="1"><g transform="translate(223.288514, 158.258999)"><g><path d="M 1.890625 0.09375 C 1.578125 0.09375 1.3125 -0.0078125 1.09375 -0.21875 C 0.875 -0.4375 0.765625 -0.710938 0.765625 -1.046875 C 0.765625 -1.359375 0.875 -1.625 1.09375 -1.84375 C 1.3125 -2.0625 1.578125 -2.171875 1.890625 -2.171875 C 2.191406 -2.171875 2.445312 -2.0625 2.65625 -1.84375 C 2.875 -1.632812 2.984375 -1.367188 2.984375 -1.046875 C 2.984375 -0.710938 2.875 -0.4375 2.65625 -0.21875 C 2.4375 -0.0078125 2.179688 0.09375 1.890625 0.09375 Z M 1.890625 0.09375 "/></g></g></g><g fill="#2c3639" fill-opacity="1"><g transform="translate(169.223211, 179.433141)"><g><path d="M 8.9375 -1.4375 L 8.9375 0 L 0.609375 0 L 0.609375 -1.125 L 5.328125 -5.671875 C 5.898438 -6.222656 6.285156 -6.695312 6.484375 -7.09375 C 6.679688 -7.5 6.78125 -7.910156 6.78125 -8.328125 C 6.78125 -8.929688 6.566406 -9.398438 6.140625 -9.734375 C 5.722656 -10.078125 5.113281 -10.25 4.3125 -10.25 C 3.039062 -10.25 2.054688 -9.828125 1.359375 -8.984375 L 0.234375 -9.96875 C 0.679688 -10.507812 1.269531 -10.9375 2 -11.25 C 2.738281 -11.5625 3.5625 -11.71875 4.46875 -11.71875 C 5.675781 -11.71875 6.640625 -11.425781 7.359375 -10.84375 C 8.078125 -10.269531 8.4375 -9.484375 8.4375 -8.484375 C 8.4375 -7.867188 8.300781 -7.285156 8.03125 -6.734375 C 7.769531 -6.179688 7.269531 -5.550781 6.53125 -4.84375 L 3 -1.4375 Z M 8.9375 -1.4375 "/></g></g></g><g fill="#2c3639" fill-opacity="1"><g transform="translate(181.052212, 179.433141)"><g><path d="M 5.53125 0.125 C 4.613281 0.125 3.796875 -0.109375 3.078125 -0.578125 C 2.367188 -1.046875 1.8125 -1.722656 1.40625 -2.609375 C 1 -3.503906 0.796875 -4.566406 0.796875 -5.796875 C 0.796875 -7.015625 1 -8.070312 1.40625 -8.96875 C 1.8125 -9.863281 2.367188 -10.546875 3.078125 -11.015625 C 3.796875 -11.484375 4.613281 -11.71875 5.53125 -11.71875 C 6.4375 -11.71875 7.242188 -11.484375 7.953125 -11.015625 C 8.660156 -10.546875 9.21875 -9.863281 9.625 -8.96875 C 10.039062 -8.070312 10.25 -7.015625 10.25 -5.796875 C 10.25 -4.566406 10.039062 -3.503906 9.625 -2.609375 C 9.21875 -1.722656 8.660156 -1.046875 7.953125 -0.578125 C 7.242188 -0.109375 6.4375 0.125 5.53125 0.125 Z M 5.53125 -1.34375 C 6.457031 -1.34375 7.195312 -1.722656 7.75 -2.484375 C 8.3125 -3.242188 8.59375 -4.347656 8.59375 -5.796875 C 8.59375 -7.234375 8.3125 -8.332031 7.75 -9.09375 C 7.195312 -9.863281 6.457031 -10.25 5.53125 -10.25 C 4.59375 -10.25 3.84375 -9.863281 3.28125 -9.09375 C 2.726562 -8.332031 2.453125 -7.234375 2.453125 -5.796875 C 2.453125 -4.347656 2.726562 -3.242188 3.28125 -2.484375 C 3.84375 -1.722656 4.59375 -1.34375 5.53125 -1.34375 Z M 5.53125 -1.34375 "/></g></g></g><g fill="#2c3639" fill-opacity="1"><g transform="translate(194.419658, 179.433141)"><g><path d="M 8.9375 -1.4375 L 8.9375 0 L 0.609375 0 L 0.609375 -1.125 L 5.328125 -5.671875 C 5.898438 -6.222656 6.285156 -6.695312 6.484375 -7.09375 C 6.679688 -7.5 6.78125 -7.910156 6.78125 -8.328125 C 6.78125 -8.929688 6.566406 -9.398438 6.140625 -9.734375 C 5.722656 -10.078125 5.113281 -10.25 4.3125 -10.25 C 3.039062 -10.25 2.054688 -9.828125 1.359375 -8.984375 L 0.234375 -9.96875 C 0.679688 -10.507812 1.269531 -10.9375 2 -11.25 C 2.738281 -11.5625 3.5625 -11.71875 4.46875 -11.71875 C 5.675781 -11.71875 6.640625 -11.425781 7.359375 -10.84375 C 8.078125 -10.269531 8.4375 -9.484375 8.4375 -8.484375 C 8.4375 -7.867188 8.300781 -7.285156 8.03125 -6.734375 C 7.769531 -6.179688 7.269531 -5.550781 6.53125 -4.84375 L 3 -1.4375 Z M 8.9375 -1.4375 "/></g></g></g><g fill="#2c3639" fill-opacity="1"><g transform="translate(206.248661, 179.433141)"><g><path d="M 5.234375 -6.71875 C 6.367188 -6.601562 7.234375 -6.25 7.828125 -5.65625 C 8.421875 -5.070312 8.71875 -4.320312 8.71875 -3.40625 C 8.71875 -2.75 8.550781 -2.148438 8.21875 -1.609375 C 7.894531 -1.078125 7.40625 -0.65625 6.75 -0.34375 C 6.09375 -0.03125 5.285156 0.125 4.328125 0.125 C 3.503906 0.125 2.710938 0.00390625 1.953125 -0.234375 C 1.191406 -0.484375 0.566406 -0.832031 0.078125 -1.28125 L 0.84375 -2.578125 C 1.238281 -2.203125 1.742188 -1.898438 2.359375 -1.671875 C 2.984375 -1.453125 3.640625 -1.34375 4.328125 -1.34375 C 5.191406 -1.34375 5.863281 -1.523438 6.34375 -1.890625 C 6.820312 -2.253906 7.0625 -2.753906 7.0625 -3.390625 C 7.0625 -4.035156 6.820312 -4.53125 6.34375 -4.875 C 5.875 -5.226562 5.160156 -5.40625 4.203125 -5.40625 L 3.28125 -5.40625 L 3.28125 -6.5625 L 6.1875 -10.140625 L 0.609375 -10.140625 L 0.609375 -11.578125 L 8.25 -11.578125 L 8.25 -10.453125 Z M 5.234375 -6.71875 "/></g></g></g><path stroke-linecap="butt" transform="matrix(0.750759, 0, 0, 0.75, 129.812075, 129.818047)" fill="none" stroke-linejoin="miter" d="M 0.000565573 1.497812 L 169.833888 1.497812 " stroke="#2c3639" stroke-width="3" stroke-opacity="1" stroke-miterlimit="4"/></svg>